<svg width="100" height="24" viewBox="0 0 100 24" fill="none" xmlns="http://www.w3.org/2000/svg">
<path d="M31.0322 6.5127H33.5266L36.8672 14.6664H36.9991L40.3397 6.5127H42.8341V17.7652H40.8781V10.0346H40.7737L37.6639 17.7322H36.2024L33.0926 10.0181H32.9882V17.7652H31.0322V6.5127Z" fill="white"/>
<path d="M48.7021 17.93C47.856 17.93 47.1252 17.7542 46.5099 17.4026C45.8982 17.0473 45.4275 16.5454 45.0978 15.8971C44.7681 15.2451 44.6033 14.4777 44.6033 13.595C44.6033 12.7268 44.7681 11.965 45.0978 11.3093C45.4311 10.65 45.8963 10.1372 46.4934 9.77087C47.0904 9.40091 47.7919 9.21594 48.5977 9.21594C49.1179 9.21594 49.6087 9.30018 50.0702 9.46868C50.5354 9.63351 50.9457 9.88991 51.301 10.2379C51.6599 10.5859 51.942 11.0291 52.1471 11.5675C52.3522 12.1023 52.4548 12.7397 52.4548 13.4796V14.0895H45.5374V12.7488H50.5482C50.5446 12.3679 50.4622 12.0291 50.301 11.7324C50.1398 11.432 49.9146 11.1957 49.6252 11.0236C49.3395 10.8514 49.0061 10.7654 48.6252 10.7654C48.2186 10.7654 47.8615 10.8643 47.5538 11.062C47.2461 11.2562 47.0062 11.5126 46.834 11.8313C46.6655 12.1463 46.5795 12.4924 46.5758 12.8697V14.04C46.5758 14.5308 46.6655 14.9521 46.845 15.3037C47.0245 15.6517 47.2754 15.9191 47.5978 16.1059C47.9201 16.289 48.2974 16.3806 48.7296 16.3806C49.019 16.3806 49.2809 16.3403 49.5153 16.2597C49.7497 16.1755 49.953 16.0528 50.1252 15.8916C50.2973 15.7304 50.4274 15.5308 50.5153 15.2927L52.3724 15.5015C52.2552 15.9923 52.0317 16.4209 51.7021 16.7872C51.3761 17.1498 50.9585 17.4319 50.4493 17.6333C49.9402 17.8311 49.3578 17.93 48.7021 17.93Z" fill="white"/>
<path d="M56.1264 6.5127V17.7652H54.1375V6.5127H56.1264Z" fill="white"/>
<path d="M59.397 17.8861C59.0636 17.8861 58.7779 17.7689 58.5398 17.5344C58.3017 17.3 58.1845 17.0143 58.1882 16.6773C58.1845 16.3477 58.3017 16.0656 58.5398 15.8312C58.7779 15.5968 59.0636 15.4795 59.397 15.4795C59.7193 15.4795 59.9995 15.5968 60.2376 15.8312C60.4794 16.0656 60.6021 16.3477 60.6057 16.6773C60.6021 16.9008 60.5435 17.104 60.4299 17.2872C60.32 17.4703 60.1735 17.6169 59.9904 17.7267C59.8109 17.833 59.6131 17.8861 59.397 17.8861Z" fill="white"/>
<path d="M69.3294 11.5565L67.5163 11.7543C67.465 11.5712 67.3753 11.399 67.2471 11.2379C67.1225 11.0767 66.954 10.9467 66.7416 10.8478C66.5291 10.7489 66.2691 10.6994 65.9614 10.6994C65.5475 10.6994 65.1995 10.7892 64.9174 10.9686C64.6391 11.1481 64.5017 11.3807 64.5054 11.6664C64.5017 11.9118 64.5914 12.1115 64.7746 12.2653C64.9614 12.4192 65.2691 12.5455 65.6977 12.6444L67.1372 12.9521C67.9357 13.1243 68.5291 13.3972 68.9174 13.7708C69.3093 14.1444 69.5071 14.6334 69.5108 15.2378C69.5071 15.7689 69.3514 16.2378 69.0437 16.6443C68.7397 17.0473 68.3166 17.3623 67.7745 17.5894C67.2324 17.8165 66.6097 17.93 65.9064 17.93C64.8735 17.93 64.042 17.7139 63.412 17.2817C62.782 16.8458 62.4065 16.2396 62.2856 15.4631L64.2252 15.2762C64.3131 15.6572 64.4999 15.9447 64.7856 16.1389C65.0713 16.333 65.4431 16.4301 65.9009 16.4301C66.3735 16.4301 66.7526 16.333 67.0383 16.1389C67.3277 15.9447 67.4723 15.7048 67.4723 15.4191C67.4723 15.1773 67.3789 14.9777 67.1921 14.8202C67.009 14.6627 66.7233 14.5418 66.335 14.4576L64.8955 14.1554C64.086 13.9869 63.4871 13.703 63.0988 13.3038C62.7105 12.9008 62.5182 12.3917 62.5219 11.7763C62.5182 11.2562 62.6593 10.8056 62.945 10.4247C63.2343 10.0401 63.6354 9.7434 64.1482 9.53461C64.6647 9.32216 65.2599 9.21594 65.9339 9.21594C66.9229 9.21594 67.7013 9.42655 68.269 9.84779C68.8404 10.269 69.1939 10.8386 69.3294 11.5565Z" fill="white"/>
<path d="M75.365 9.32582V10.8643H70.5135V9.32582H75.365ZM71.7113 7.30389H73.7002V15.2268C73.7002 15.4942 73.7405 15.6993 73.8211 15.8422C73.9053 15.9814 74.0152 16.0766 74.1508 16.1279C74.2863 16.1792 74.4365 16.2048 74.6013 16.2048C74.7259 16.2048 74.8394 16.1956 74.942 16.1773C75.0482 16.159 75.1288 16.1425 75.1837 16.1279L75.5189 17.6828C75.4127 17.7194 75.2606 17.7597 75.0628 17.8037C74.8687 17.8476 74.6306 17.8733 74.3486 17.8806C73.8504 17.8952 73.4017 17.8201 73.0024 17.6553C72.6032 17.4868 72.2863 17.2268 72.0519 16.8751C71.8211 16.5235 71.7076 16.0839 71.7113 15.5565V7.30389Z" fill="white"/>
<path d="M80.619 17.93C79.7949 17.93 79.0806 17.7487 78.4762 17.3861C77.8718 17.0235 77.403 16.5161 77.0697 15.8641C76.74 15.2121 76.5752 14.4503 76.5752 13.5785C76.5752 12.7067 76.74 11.943 77.0697 11.2873C77.403 10.6317 77.8718 10.1225 78.4762 9.75988C79.0806 9.39725 79.7949 9.21594 80.619 9.21594C81.4432 9.21594 82.1575 9.39725 82.7619 9.75988C83.3662 10.1225 83.8333 10.6317 84.1629 11.2873C84.4963 11.943 84.6629 12.7067 84.6629 13.5785C84.6629 14.4503 84.4963 15.2121 84.1629 15.8641C83.8333 16.5161 83.3662 17.0235 82.7619 17.3861C82.1575 17.7487 81.4432 17.93 80.619 17.93ZM80.63 16.3367C81.0769 16.3367 81.4505 16.214 81.7509 15.9685C82.0512 15.7195 82.2747 15.3861 82.4212 14.9686C82.5714 14.551 82.6465 14.0858 82.6465 13.573C82.6465 13.0565 82.5714 12.5895 82.4212 12.1719C82.2747 11.7507 82.0512 11.4155 81.7509 11.1664C81.4505 10.9174 81.0769 10.7928 80.63 10.7928C80.1722 10.7928 79.7912 10.9174 79.4872 11.1664C79.1868 11.4155 78.9616 11.7507 78.8114 12.1719C78.6649 12.5895 78.5916 13.0565 78.5916 13.573C78.5916 14.0858 78.6649 14.551 78.8114 14.9686C78.9616 15.3861 79.1868 15.7195 79.4872 15.9685C79.7912 16.214 80.1722 16.3367 80.63 16.3367Z" fill="white"/>
<path d="M86.3511 17.7652V9.32582H88.2796V10.7324H88.3675C88.5213 10.2452 88.7851 9.86977 89.1587 9.60604C89.536 9.33864 89.9664 9.20495 90.4499 9.20495C90.5598 9.20495 90.6825 9.21044 90.818 9.22143C90.9572 9.22875 91.0726 9.24158 91.1642 9.25989V11.0895C91.0799 11.0602 90.9462 11.0346 90.7631 11.0126C90.5836 10.987 90.4096 10.9741 90.2411 10.9741C89.8785 10.9741 89.5525 11.0529 89.2631 11.2104C88.9774 11.3642 88.7521 11.5785 88.5873 11.8532C88.4225 12.128 88.34 12.4448 88.34 12.8038V17.7652H86.3511Z" fill="white"/>
<path d="M95.8742 17.93C95.0281 17.93 94.2973 17.7542 93.682 17.4026C93.0702 17.0473 92.5996 16.5454 92.2699 15.8971C91.9402 15.2451 91.7754 14.4777 91.7754 13.595C91.7754 12.7268 91.9402 11.965 92.2699 11.3093C92.6032 10.65 93.0684 10.1372 93.6655 9.77087C94.2625 9.40091 94.964 9.21594 95.7698 9.21594C96.29 9.21594 96.7808 9.30018 97.2423 9.46868C97.7075 9.63351 98.1178 9.88991 98.4731 10.2379C98.832 10.5859 99.1141 11.0291 99.3192 11.5675C99.5243 12.1023 99.6269 12.7397 99.6269 13.4796V14.0895H92.7094V12.7488H97.7203C97.7167 12.3679 97.6343 12.0291 97.4731 11.7324C97.3119 11.432 97.0867 11.1957 96.7973 11.0236C96.5116 10.8514 96.1782 10.7654 95.7973 10.7654C95.3907 10.7654 95.0336 10.8643 94.7259 11.062C94.4182 11.2562 94.1783 11.5126 94.0061 11.8313C93.8376 12.1463 93.7516 12.4924 93.7479 12.8697V14.04C93.7479 14.5308 93.8376 14.9521 94.0171 15.3037C94.1966 15.6517 94.4475 15.9191 94.7699 16.1059C95.0922 16.289 95.4695 16.3806 95.9017 16.3806C96.1911 16.3806 96.453 16.3403 96.6874 16.2597C96.9218 16.1755 97.1251 16.0528 97.2973 15.8916C97.4694 15.7304 97.5995 15.5308 97.6874 15.2927L99.5445 15.5015C99.4273 15.9923 99.2038 16.4209 98.8742 16.7872C98.5482 17.1498 98.1306 17.4319 97.6214 17.6333C97.1123 17.8311 96.5299 17.93 95.8742 17.93Z" fill="white"/>
<path fill-rule="evenodd" clip-rule="evenodd" d="M7.99998 0H16C20.4183 0 24 3.58172 24 7.99998V16C24 20.4183 20.4183 24 16 24H7.99998C3.58172 24 0 20.4183 0 16V7.99998C0 3.58172 3.58172 0 7.99998 0ZM9.83562 7.0002L5.68001 14.1761C5.55738 14.4422 5.49615 14.7337 5.50105 15.028C5.53322 15.4691 5.72128 15.883 6.03 16.1922C6.3387 16.5014 6.74688 16.6847 7.17804 16.7077C8.0811 16.7561 11.2341 16.8736 15.5345 16.9889L15.7462 16.1496C11.1517 15.9847 7.83096 15.8708 7.33794 15.8778C7.19292 15.8796 7.0491 15.8498 6.91614 15.7904C6.76608 15.7324 6.63168 15.6385 6.52434 15.5163C6.417 15.3941 6.33984 15.2474 6.29928 15.0884C6.27684 14.9548 6.28284 14.8178 6.31698 14.6868C6.35106 14.5558 6.41238 14.434 6.4968 14.3295C6.67674 14.1202 6.92346 14.0922 7.93482 14.1142C8.31858 14.1227 8.64234 14.1347 8.88228 14.1446L10.784 10.4585L11.4765 12.7912L14.5681 10.9241L12.5946 14.2661L15.0181 14.345L18.5008 7.29696L15.3229 7.17606L12.9799 9.37434L12.479 7.08612L9.83562 7.0002Z" fill="white"/>
</svg>
