<svg width="133" height="32" viewBox="0 0 133 32" fill="none" xmlns="http://www.w3.org/2000/svg">
<path d="M41.3762 8.68359H44.7022L49.1563 19.5552H49.3321L53.7862 8.68359H57.1122V23.6869H54.5042V13.3795H54.365L50.2185 23.643H48.2699L44.1234 13.3575H43.9842V23.6869H41.3762V8.68359Z" fill="white"/>
<path d="M64.9362 23.9067C63.808 23.9067 62.8337 23.6723 62.0132 23.2034C61.1975 22.7297 60.57 22.0606 60.1304 21.1961C59.6909 20.3268 59.4711 19.3036 59.4711 18.1266C59.4711 16.9691 59.6909 15.9533 60.1304 15.0791C60.5748 14.2 61.1951 13.5162 61.9912 13.0278C62.7873 12.5345 63.7225 12.2879 64.797 12.2879C65.4905 12.2879 66.1449 12.4002 66.7603 12.6249C67.3806 12.8447 67.9276 13.1866 68.4013 13.6505C68.8799 14.1145 69.256 14.7054 69.5295 15.4234C69.803 16.1364 69.9397 16.9862 69.9397 17.9728V18.7859H60.7165V16.9984H67.3977C67.3928 16.4905 67.2829 16.0387 67.068 15.6432C66.8531 15.2427 66.5527 14.9277 66.1669 14.6981C65.786 14.4686 65.3415 14.3538 64.8336 14.3538C64.2915 14.3538 63.8153 14.4857 63.4051 14.7494C62.9948 15.0082 62.6749 15.3501 62.4454 15.775C62.2207 16.195 62.1059 16.6566 62.1011 17.1596V18.72C62.1011 19.3745 62.2207 19.9361 62.46 20.405C62.6993 20.8689 63.0339 21.2255 63.4637 21.4745C63.8935 21.7187 64.3965 21.8408 64.9728 21.8408C65.3586 21.8408 65.7078 21.7871 66.0204 21.6797C66.333 21.5673 66.604 21.4037 66.8336 21.1888C67.0631 20.9739 67.2365 20.7078 67.3537 20.3903L69.8298 20.6687C69.6736 21.3231 69.3756 21.8945 68.9361 22.3829C68.5014 22.8664 67.9447 23.2425 67.2658 23.5111C66.5869 23.7749 65.8104 23.9067 64.9362 23.9067Z" fill="white"/>
<path d="M74.8352 8.68359V23.6869H72.1833V8.68359H74.8352Z" fill="white"/>
<path d="M79.196 23.8481C78.7515 23.8481 78.3706 23.6918 78.0531 23.3793C77.7357 23.0667 77.5794 22.6857 77.5843 22.2364C77.5794 21.7969 77.7357 21.4208 78.0531 21.1082C78.3706 20.7957 78.7515 20.6394 79.196 20.6394C79.6257 20.6394 79.9994 20.7957 80.3168 21.1082C80.6391 21.4208 80.8028 21.7969 80.8076 22.2364C80.8028 22.5343 80.7246 22.8054 80.5732 23.0496C80.4267 23.2938 80.2313 23.4891 79.9871 23.6357C79.7478 23.7773 79.4841 23.8481 79.196 23.8481Z" fill="white"/>
<path d="M92.4393 15.4087L90.0217 15.6725C89.9534 15.4283 89.8337 15.1987 89.6628 14.9838C89.4967 14.7689 89.272 14.5956 88.9888 14.4637C88.7055 14.3318 88.3588 14.2659 87.9485 14.2659C87.3966 14.2659 86.9327 14.3855 86.5566 14.6249C86.1854 14.8642 86.0023 15.1743 86.0072 15.5552C86.0023 15.8825 86.1219 16.1486 86.3661 16.3538C86.6152 16.5589 87.0255 16.7274 87.5969 16.8592L89.5163 17.2695C90.5809 17.499 91.3721 17.8629 91.8898 18.361C92.4124 18.8592 92.6761 19.5112 92.681 20.317C92.6761 21.0252 92.4686 21.6503 92.0583 22.1925C91.653 22.7297 91.0889 23.1497 90.366 23.4525C89.6432 23.7553 88.813 23.9067 87.8753 23.9067C86.498 23.9067 85.3894 23.6186 84.5493 23.0423C83.7093 22.4611 83.2087 21.6528 83.0475 20.6174L85.6335 20.3683C85.7508 20.8763 85.9998 21.2596 86.3808 21.5185C86.7617 21.7773 87.2574 21.9068 87.8679 21.9068C88.498 21.9068 89.0034 21.7773 89.3844 21.5185C89.7702 21.2596 89.9631 20.9397 89.9631 20.5588C89.9631 20.2365 89.8386 19.9703 89.5895 19.7603C89.3453 19.5503 88.9644 19.3891 88.4467 19.2768L86.5273 18.8739C85.448 18.6492 84.6494 18.2707 84.1317 17.7383C83.6141 17.2011 83.3576 16.5223 83.3625 15.7018C83.3576 15.0082 83.5457 14.4075 83.9266 13.8996C84.3125 13.3868 84.8472 12.9912 85.531 12.7128C86.2196 12.4295 87.0133 12.2879 87.9119 12.2879C89.2305 12.2879 90.2684 12.5687 91.0254 13.1304C91.7873 13.692 92.2586 14.4515 92.4393 15.4087Z" fill="white"/>
<path d="M100.487 12.4344V14.4857H94.018V12.4344H100.487ZM95.615 9.73852H98.267V20.3024C98.267 20.6589 98.3207 20.9324 98.4281 21.1229C98.5405 21.3085 98.687 21.4355 98.8677 21.5038C99.0484 21.5722 99.2486 21.6064 99.4684 21.6064C99.6345 21.6064 99.7859 21.5942 99.9226 21.5698C100.064 21.5453 100.172 21.5234 100.245 21.5038L100.692 23.5771C100.55 23.6259 100.348 23.6796 100.084 23.7382C99.8249 23.7968 99.5075 23.831 99.1314 23.8408C98.4672 23.8603 97.8689 23.7602 97.3366 23.5404C96.8043 23.3158 96.3818 22.969 96.0692 22.5002C95.7615 22.0313 95.6101 21.4452 95.615 20.7419V9.73852Z" fill="white"/>
<path d="M107.492 23.9067C106.393 23.9067 105.441 23.665 104.635 23.1815C103.829 22.6979 103.204 22.0215 102.76 21.1522C102.32 20.2829 102.1 19.267 102.1 18.1046C102.1 16.9423 102.32 15.924 102.76 15.0498C103.204 14.1755 103.829 13.4967 104.635 13.0132C105.441 12.5297 106.393 12.2879 107.492 12.2879C108.591 12.2879 109.543 12.5297 110.349 13.0132C111.155 13.4967 111.778 14.1755 112.217 15.0498C112.662 15.924 112.884 16.9423 112.884 18.1046C112.884 19.267 112.662 20.2829 112.217 21.1522C111.778 22.0215 111.155 22.6979 110.349 23.1815C109.543 23.665 108.591 23.9067 107.492 23.9067ZM107.507 21.7822C108.103 21.7822 108.601 21.6186 109.001 21.2914C109.402 20.9593 109.7 20.5148 109.895 19.9581C110.095 19.4013 110.195 18.7811 110.195 18.0973C110.195 17.4087 110.095 16.786 109.895 16.2292C109.7 15.6676 109.402 15.2207 109.001 14.8886C108.601 14.5565 108.103 14.3904 107.507 14.3904C106.896 14.3904 106.388 14.5565 105.983 14.8886C105.582 15.2207 105.282 15.6676 105.082 16.2292C104.887 16.786 104.789 17.4087 104.789 18.0973C104.789 18.7811 104.887 19.4013 105.082 19.9581C105.282 20.5148 105.582 20.9593 105.983 21.2914C106.388 21.6186 106.896 21.7822 107.507 21.7822Z" fill="white"/>
<path d="M115.135 23.6869V12.4344H117.706V14.3098H117.823C118.028 13.6603 118.38 13.1597 118.878 12.8081C119.381 12.4515 119.955 12.2733 120.6 12.2733C120.746 12.2733 120.91 12.2806 121.091 12.2952C121.276 12.305 121.43 12.3221 121.552 12.3465V14.786C121.44 14.747 121.262 14.7128 121.017 14.6835C120.778 14.6493 120.546 14.6322 120.321 14.6322C119.838 14.6322 119.403 14.7372 119.017 14.9472C118.637 15.1523 118.336 15.438 118.116 15.8043C117.897 16.1706 117.787 16.5931 117.787 17.0717V23.6869H115.135Z" fill="white"/>
<path d="M127.832 23.9067C126.704 23.9067 125.73 23.6723 124.909 23.2034C124.094 22.7297 123.466 22.0606 123.027 21.1961C122.587 20.3268 122.367 19.3036 122.367 18.1266C122.367 16.9691 122.587 15.9533 123.027 15.0791C123.471 14.2 124.091 13.5162 124.887 13.0278C125.683 12.5345 126.619 12.2879 127.693 12.2879C128.387 12.2879 129.041 12.4002 129.656 12.6249C130.277 12.8447 130.824 13.1866 131.297 13.6505C131.776 14.1145 132.152 14.7054 132.426 15.4234C132.699 16.1364 132.836 16.9862 132.836 17.9728V18.7859H123.613V16.9984H130.294C130.289 16.4905 130.179 16.0387 129.964 15.6432C129.749 15.2427 129.449 14.9277 129.063 14.6981C128.682 14.4686 128.238 14.3538 127.73 14.3538C127.188 14.3538 126.711 14.4857 126.301 14.7494C125.891 15.0082 125.571 15.3501 125.342 15.775C125.117 16.195 125.002 16.6566 124.997 17.1596V18.72C124.997 19.3745 125.117 19.9361 125.356 20.405C125.595 20.8689 125.93 21.2255 126.36 21.4745C126.79 21.7187 127.293 21.8408 127.869 21.8408C128.255 21.8408 128.604 21.7871 128.917 21.6797C129.229 21.5673 129.5 21.4037 129.73 21.1888C129.959 20.9739 130.133 20.7078 130.25 20.3903L132.726 20.6687C132.57 21.3231 132.272 21.8945 131.832 22.3829C131.398 22.8664 130.841 23.2425 130.162 23.5111C129.483 23.7749 128.707 23.9067 127.832 23.9067Z" fill="white"/>
<path fill-rule="evenodd" clip-rule="evenodd" d="M10.6666 0H21.3334C27.2244 0 32 4.77563 32 10.6666V21.3334C32 27.2244 27.2244 32 21.3334 32H10.6666C4.77563 32 0 27.2244 0 21.3334V10.6666C0 4.77563 4.77563 0 10.6666 0ZM13.1142 9.3336L7.57335 18.9015C7.40985 19.2563 7.3282 19.645 7.33473 20.0373C7.37763 20.6254 7.62837 21.1774 8.04 21.5896C8.4516 22.0019 8.99584 22.2462 9.57072 22.2769C10.7748 22.3415 14.9788 22.4981 20.7127 22.6519L20.9949 21.5328C14.869 21.313 10.4413 21.1611 9.78392 21.1704C9.59056 21.1728 9.3988 21.133 9.22152 21.0538C9.02144 20.9766 8.84224 20.8513 8.69912 20.6884C8.556 20.5255 8.45312 20.3299 8.39904 20.1179C8.36912 19.9398 8.37712 19.7571 8.42264 19.5824C8.46808 19.4078 8.54984 19.2453 8.6624 19.106C8.90232 18.8269 9.23128 18.7896 10.5798 18.8189C11.0914 18.8302 11.5231 18.8462 11.843 18.8595L14.3787 13.9447L15.302 17.055L19.4241 14.5655L16.7928 19.0214L20.0242 19.1266L24.6677 9.72928L20.4306 9.56808L17.3065 12.4991L16.6387 9.44816L13.1142 9.3336Z" fill="white"/>
</svg>
